<svg width="36" height="35" viewBox="0 0 36 35" fill="none" xmlns="http://www.w3.org/2000/svg">
<path d="M17.9094 6.13257C11.6913 6.13257 6.63239 11.1915 6.63239 17.4096C6.63239 23.6277 11.6913 28.6866 17.9094 28.6866C24.1275 28.6866 29.1864 23.6277 29.1864 17.4096C29.1864 11.1915 24.1275 6.13257 17.9094 6.13257ZM17.9094 23.2455C14.6859 23.2455 12.0735 20.6331 12.0735 17.4096C12.0735 14.1861 14.6859 11.5737 17.9094 11.5737C21.1329 11.5737 23.7453 14.1861 23.7453 17.4096C23.7453 20.6331 21.1329 23.2455 17.9094 23.2455Z" fill="white"/>
<path fill-rule="evenodd" clip-rule="evenodd" d="M18.8546 4.28032V0.0698242C28.0064 0.559124 35.2766 8.13592 35.2766 17.4095C35.2766 26.6831 28.0064 34.2578 18.8546 34.7492V30.5387C25.6754 30.0515 31.0766 24.3521 31.0766 17.4095C31.0766 10.4669 25.6754 4.76752 18.8546 4.28032ZM7.96399 26.0195C6.15589 23.9321 4.99039 21.2735 4.78249 18.3545H0.569885C0.788285 22.439 2.42208 26.1455 4.98198 28.9994L7.96188 26.0195H7.96399ZM16.9647 34.7492V30.5387C14.0436 30.3308 11.385 29.1674 9.29757 27.3572L6.31767 30.3371C9.17367 32.8991 12.8802 34.5308 16.9626 34.7492H16.9647Z" fill="url(#paint0_linear_32_511)"/>
<defs>
<linearGradient id="paint0_linear_32_511" x1="19.5351" y1="2.50817" x2="2.46634" y2="19.577" gradientUnits="userSpaceOnUse">
<stop stop-color="#0096FF"/>
<stop offset="1" stop-color="#FF1E56"/>
</linearGradient>
</defs>
</svg>
