<svg width="221" height="23" viewBox="0 0 221 23" fill="none" xmlns="http://www.w3.org/2000/svg">
<g clip-path="url(#clip0_1_934)">
<path d="M24.2201 6.37221V1.6861H1.12012V6.37221H9.84036V21.9549H15.4999V6.37221H24.2201Z" fill="white"/>
<path d="M37.2717 22.2655C44.3749 22.2655 48.273 18.7368 48.273 12.9215V1.6861H42.6135V12.3851C42.6135 15.6315 40.881 17.4664 37.2717 17.4664C33.6623 17.4664 31.9298 15.6315 31.9298 12.3851V1.6861H26.2703V12.9215C26.2703 18.7368 30.1684 22.2655 37.2717 22.2655Z" fill="white"/>
<path d="M56.9365 15.2363H62.5672L67.0139 21.9549H73.5109L68.4863 14.6435C71.3164 13.6554 73.0487 11.4535 73.0487 8.46118C73.0487 4.11384 69.7283 1.6861 64.6751 1.6861H51.2769V21.9549H56.9365V15.2363ZM56.9365 10.8607V6.31576H64.3861C66.3784 6.31576 67.4757 7.16265 67.4757 8.60233C67.4757 9.95735 66.3784 10.8607 64.3861 10.8607H56.9365Z" fill="white"/>
<path d="M75.6819 21.9549H90.4949C95.1149 21.9549 97.7712 19.8095 97.7712 16.2243C97.7712 13.8248 96.2122 12.1875 94.3642 11.4535C95.6347 10.8607 97.1938 9.44923 97.1938 7.21911C97.1938 3.63394 94.5951 1.6861 90.0041 1.6861H75.6819V21.9549ZM81.1107 9.61863V6.17461H89.4267C90.9857 6.17461 91.8521 6.76743 91.8521 7.8966C91.8521 9.0258 90.9857 9.61863 89.4267 9.61863H81.1107ZM81.1107 13.7684H89.9461C91.4765 13.7684 92.3139 14.5023 92.3139 15.6033C92.3139 16.7043 91.4765 17.4382 89.9461 17.4382H81.1107V13.7684Z" fill="white"/>
<path d="M111.609 1.34735C104.361 1.34735 99.1348 5.77939 99.1348 11.8205C99.1348 17.8617 104.361 22.2937 111.609 22.2937C118.856 22.2937 124.054 17.8617 124.054 11.8205C124.054 5.77939 118.856 1.34735 111.609 1.34735ZM111.609 6.14637C115.42 6.14637 118.279 8.34828 118.279 11.8205C118.279 15.2928 115.42 17.4947 111.609 17.4947C107.797 17.4947 104.939 15.2928 104.939 11.8205C104.939 8.34828 107.797 6.14637 111.609 6.14637Z" fill="white"/>
<path d="M132.21 15.4904H139.746C144.8 15.4904 148.12 13.1191 148.12 8.60233C148.12 4.05738 144.8 1.6861 139.746 1.6861H126.551V21.9549H132.21V15.4904ZM132.21 10.889V6.31576H139.429C141.45 6.31576 142.547 7.16265 142.547 8.60233C142.547 10.0138 141.45 10.889 139.429 10.889H132.21Z" fill="white"/>
<path d="M155.695 1.6861L145.502 21.9549H151.508L153.385 18.1439H164.271L166.148 21.9549H172.356L162.192 1.6861H155.695ZM158.871 7.10616L162.105 13.7119H155.609L158.871 7.10616Z" fill="white"/>
<path d="M171.166 11.8205C171.166 17.8617 176.334 22.2937 183.553 22.2937C189.328 22.2937 193.342 19.753 194.93 15.6598L189.761 13.4014C188.952 15.7727 186.845 17.4947 183.553 17.4947C179.857 17.4947 176.94 15.2928 176.94 11.8205C176.94 8.34828 179.857 6.14637 183.553 6.14637C186.845 6.14637 188.952 7.8684 189.761 10.2397L194.93 7.98131C193.342 3.88802 189.328 1.34735 183.553 1.34735C176.334 1.34735 171.166 5.77939 171.166 11.8205Z" fill="white"/>
<path d="M202.633 1.6861H196.974V21.9549H202.633V16.9019L206.329 13.6554L213.519 21.9549H220.709L210.401 10.0985L219.987 1.6861H212.278L202.633 10.2397V1.6861Z" fill="white"/>
</g>
<defs>
<clipPath id="clip0_1_934">
<rect width="220" height="21.73" fill="white" transform="translate(0.998535 0.993958)"/>
</clipPath>
</defs>
</svg>
