<svg width="85" height="85" viewBox="0 0 85 85" fill="none" xmlns="http://www.w3.org/2000/svg">
<mask id="mask0_1_898" style="mask-type:luminance" maskUnits="userSpaceOnUse" x="0" y="0" width="85" height="85">
<path d="M84.9985 0.497986H0.998535V84.498H84.9985V0.497986Z" fill="white"/>
</mask>
<g mask="url(#mask0_1_898)">
<path d="M22.014 6.15182C34.9992 -1.3452 50.9977 -1.3452 63.983 6.15182C76.9681 13.6488 84.9678 27.5039 84.9678 42.498C84.9678 57.4921 76.9681 71.3471 63.983 78.8441C50.9977 86.3411 34.9992 86.3411 22.014 78.8441C9.02878 71.3471 1.02954 57.4921 1.02954 42.498C1.02954 27.5039 9.02878 13.6488 22.014 6.15182Z" fill="black" fill-opacity="0.64"/>
<path d="M22.014 6.15182C34.9992 -1.3452 50.9977 -1.3452 63.983 6.15182C76.9681 13.6488 84.9678 27.5039 84.9678 42.498C84.9678 57.4921 76.9681 71.3471 63.983 78.8441C50.9977 86.3411 34.9992 86.3411 22.014 78.8441C9.02878 71.3471 1.02954 57.4921 1.02954 42.498C1.02954 27.5039 9.02878 13.6488 22.014 6.15182Z" fill="url(#paint0_linear_1_898)" fill-opacity="0.15"/>
<path d="M22.014 6.15182C34.9992 -1.3452 50.9977 -1.3452 63.983 6.15182C76.9681 13.6488 84.9678 27.5039 84.9678 42.498C84.9678 57.4921 76.9681 71.3471 63.983 78.8441C50.9977 86.3411 34.9992 86.3411 22.014 78.8441C9.02878 71.3471 1.02954 57.4921 1.02954 42.498C1.02954 27.5039 9.02878 13.6488 22.014 6.15182Z" fill="black" fill-opacity="0.5"/>
<path d="M1.43335 42.498C1.43335 27.6482 9.35562 13.9264 22.2159 6.50155C35.0762 -0.923329 50.9207 -0.923329 63.781 6.50155C76.6412 13.9264 84.5639 27.6482 84.5639 42.498C84.5639 57.3477 76.6412 71.0695 63.781 78.4944C50.9207 85.9195 35.0762 85.9195 22.2159 78.4944C9.35562 71.0695 1.43335 57.3477 1.43335 42.498Z" stroke="url(#paint1_radial_1_898)" stroke-opacity="0.15"/>
<path d="M1.43335 42.498C1.43335 27.6482 9.35562 13.9264 22.2159 6.50155C35.0762 -0.923329 50.9207 -0.923329 63.781 6.50155C76.6412 13.9264 84.5639 27.6482 84.5639 42.498C84.5639 57.3477 76.6412 71.0695 63.781 78.4944C50.9207 85.9195 35.0762 85.9195 22.2159 78.4944C9.35562 71.0695 1.43335 57.3477 1.43335 42.498Z" stroke="url(#paint2_linear_1_898)" stroke-opacity="0.5"/>
<path d="M42.9079 31.1307C36.6898 31.1307 31.6309 36.1896 31.6309 42.4077C31.6309 48.6258 36.6898 53.6847 42.9079 53.6847C49.126 53.6847 54.1849 48.6258 54.1849 42.4077C54.1849 36.1896 49.126 31.1307 42.9079 31.1307ZM42.9079 48.2436C39.6844 48.2436 37.072 45.6312 37.072 42.4077C37.072 39.1842 39.6844 36.5718 42.9079 36.5718C46.1314 36.5718 48.7438 39.1842 48.7438 42.4077C48.7438 45.6312 46.1314 48.2436 42.9079 48.2436Z" fill="white"/>
<path fill-rule="evenodd" clip-rule="evenodd" d="M43.8531 29.2785V25.068C53.0049 25.5573 60.2751 33.1341 60.2751 42.4077C60.2751 51.6813 53.0049 59.256 43.8531 59.7474V55.5369C50.6739 55.0497 56.0751 49.3503 56.0751 42.4077C56.0751 35.4651 50.6739 29.7657 43.8531 29.2785ZM32.9625 51.0177C31.1544 48.9303 29.9889 46.2717 29.781 43.3527H25.5684C25.7868 47.4372 27.4206 51.1437 29.9805 53.9976L32.9604 51.0177H32.9625ZM41.9631 59.7474V55.5369C39.042 55.329 36.3834 54.1656 34.296 52.3554L31.3161 55.3353C34.1721 57.8973 37.8786 59.529 41.961 59.7474H41.9631Z" fill="url(#paint3_linear_1_898)"/>
</g>
<defs>
<linearGradient id="paint0_linear_1_898" x1="42.9985" y1="-5.96356" x2="42.9985" y2="90.9595" gradientUnits="userSpaceOnUse">
<stop stop-color="#3286F1"/>
<stop offset="1" stop-color="#C43AC4"/>
</linearGradient>
<radialGradient id="paint1_radial_1_898" cx="0" cy="0" r="1" gradientUnits="userSpaceOnUse" gradientTransform="translate(42.9984 -5.96357) rotate(90) scale(124.616 124.616)">
<stop stop-color="white"/>
<stop offset="1" stop-color="white"/>
</radialGradient>
<linearGradient id="paint2_linear_1_898" x1="-5.46311" y1="-5.96357" x2="15.7388" y2="33.4114" gradientUnits="userSpaceOnUse">
<stop stop-color="white"/>
<stop offset="1" stop-color="white" stop-opacity="0"/>
</linearGradient>
<linearGradient id="paint3_linear_1_898" x1="44.5336" y1="27.5063" x2="27.4648" y2="44.5751" gradientUnits="userSpaceOnUse">
<stop stop-color="#0096FF"/>
<stop offset="1" stop-color="#FF1E56"/>
</linearGradient>
</defs>
</svg>
