<svg width="85" height="85" viewBox="0 0 85 85" fill="none" xmlns="http://www.w3.org/2000/svg">
<path d="M6.52393 14.4193C6.52393 9.78017 10.2847 6.01935 14.9239 6.01935H70.7747C75.4141 6.01935 79.1745 9.78017 79.1745 14.4193V70.2701C79.1745 74.9096 75.4141 78.67 70.7747 78.67H14.9239C10.2847 78.67 6.52393 74.9096 6.52393 70.2701V14.4193Z" fill="black" fill-opacity="0.64"/>
<path d="M6.52393 14.4193C6.52393 9.78017 10.2847 6.01935 14.9239 6.01935H70.7747C75.4141 6.01935 79.1745 9.78017 79.1745 14.4193V70.2701C79.1745 74.9096 75.4141 78.67 70.7747 78.67H14.9239C10.2847 78.67 6.52393 74.9096 6.52393 70.2701V14.4193Z" fill="url(#paint0_linear_1_925)" fill-opacity="0.15"/>
<path d="M6.52393 14.4193C6.52393 9.78017 10.2847 6.01935 14.9239 6.01935H70.7747C75.4141 6.01935 79.1745 9.78017 79.1745 14.4193V70.2701C79.1745 74.9096 75.4141 78.67 70.7747 78.67H14.9239C10.2847 78.67 6.52393 74.9096 6.52393 70.2701V14.4193Z" fill="black" fill-opacity="0.5"/>
<path d="M14.924 6.36932L70.7748 6.36933C75.2203 6.36932 78.8246 9.97341 78.8246 14.4193V70.2701C78.8246 74.7156 75.2203 78.3199 70.7748 78.3199H14.924C10.4781 78.3199 6.87402 74.7156 6.87402 70.2701V14.4193C6.87402 9.97341 10.4781 6.36932 14.924 6.36932Z" stroke="url(#paint1_radial_1_925)" stroke-opacity="0.15"/>
<path d="M14.924 6.36932L70.7748 6.36933C75.2203 6.36932 78.8246 9.97341 78.8246 14.4193V70.2701C78.8246 74.7156 75.2203 78.3199 70.7748 78.3199H14.924C10.4781 78.3199 6.87402 74.7156 6.87402 70.2701V14.4193C6.87402 9.97341 10.4781 6.36932 14.924 6.36932Z" stroke="url(#paint2_linear_1_925)" stroke-opacity="0.5"/>
<path fill-rule="evenodd" clip-rule="evenodd" d="M37.7824 36.5778C37.3958 36.5778 37.0824 36.8912 37.0824 37.2778V47.0101C37.0824 47.3967 37.3958 47.7101 37.7824 47.7101H47.5147C47.9013 47.7101 48.2147 47.3967 48.2147 47.0101V37.2778C48.2147 36.8912 47.9013 36.5778 47.5147 36.5778H37.7824ZM33.1397 31.994C32.7856 31.994 32.4985 32.281 32.4985 32.6352V51.6528C32.4985 52.0069 32.7856 52.294 33.1397 52.294H52.1573C52.5115 52.294 52.7985 52.0069 52.7985 51.6528V32.6352C52.7985 32.281 52.5115 31.994 52.1573 31.994H33.1397Z" fill="white"/>
<path fill-rule="evenodd" clip-rule="evenodd" d="M26.1985 54.394V42.494H31.0985V52.294C31.0985 52.3991 31.1101 52.5016 31.1321 52.6001L26.9459 56.7862C26.4747 56.1074 26.1985 55.283 26.1985 54.394ZM27.9241 57.788C28.618 58.2949 29.4733 58.594 30.3985 58.594H42.2985V53.694H32.4985C32.3532 53.694 32.2131 53.6719 32.0813 53.6308L27.9241 57.788ZM43.6985 53.694V58.594H54.8985C57.2181 58.594 59.0985 56.7136 59.0985 54.394V29.894C59.0985 27.5744 57.2181 25.694 54.8985 25.694H42.9985V30.594H52.7985C53.5717 30.594 54.1985 31.2208 54.1985 31.994V52.294C54.1985 53.0672 53.5717 53.694 52.7985 53.694H43.6985Z" fill="url(#paint3_linear_1_925)"/>
<defs>
<linearGradient id="paint0_linear_1_925" x1="6.52393" y1="6.01935" x2="79.1745" y2="78.67" gradientUnits="userSpaceOnUse">
<stop stop-color="#3286F1"/>
<stop offset="1" stop-color="#C43AC4"/>
</linearGradient>
<radialGradient id="paint1_radial_1_925" cx="0" cy="0" r="1" gradientUnits="userSpaceOnUse" gradientTransform="translate(6.52402 6.01933) rotate(45) scale(132.099)">
<stop stop-color="white"/>
<stop offset="1" stop-color="white"/>
</radialGradient>
<linearGradient id="paint2_linear_1_925" x1="-29.8014" y1="42.3447" x2="15.6053" y2="55.9667" gradientUnits="userSpaceOnUse">
<stop stop-color="white"/>
<stop offset="1" stop-color="white" stop-opacity="0"/>
</linearGradient>
<linearGradient id="paint3_linear_1_925" x1="44.266" y1="28.0073" x2="28.0736" y2="44.09" gradientUnits="userSpaceOnUse">
<stop stop-color="#0096FF"/>
<stop offset="1" stop-color="#FF1E56"/>
</linearGradient>
</defs>
</svg>
