<svg width="221" height="23" viewBox="0 0 221 23" fill="none" xmlns="http://www.w3.org/2000/svg">
<g clip-path="url(#clip0_1_910)">
<path d="M24.3544 6.21583V1.45587H1.40942V6.21583H10.0712V22.0441H15.6927V6.21583H24.3544Z" fill="white"/>
<path d="M37.3186 22.3595C44.3742 22.3595 48.2464 18.7752 48.2464 12.8683V1.45587H42.6247V12.3235C42.6247 15.621 40.9038 17.4849 37.3186 17.4849C33.7335 17.4849 32.0126 15.621 32.0126 12.3235V1.45587H26.3911V12.8683C26.3911 18.7752 30.2631 22.3595 37.3186 22.3595Z" fill="white"/>
<path d="M56.8515 15.2196H62.4441L66.861 22.0441H73.3145L68.3237 14.6175C71.1345 13.6138 72.8554 11.3772 72.8554 8.33772C72.8554 3.92187 69.5571 1.45587 64.538 1.45587H51.2297V22.0441H56.8515V15.2196ZM56.8515 10.7751V6.15849H64.251C66.2302 6.15849 67.3202 7.01872 67.3202 8.48112C67.3202 9.85749 66.2302 10.7751 64.251 10.7751H56.8515Z" fill="white"/>
<path d="M75.4712 22.0441H90.1847C94.7738 22.0441 97.4125 19.8649 97.4125 16.2232C97.4125 13.7859 95.8634 12.1228 94.0277 11.3772C95.2899 10.7751 96.8386 9.34135 96.8386 7.07606C96.8386 3.4344 94.2573 1.45587 89.6968 1.45587H75.4712V22.0441ZM80.8634 9.5134V6.01509H89.1234C90.6721 6.01509 91.5325 6.61725 91.5325 7.76424C91.5325 8.91123 90.6721 9.5134 89.1234 9.5134H80.8634ZM80.8634 13.7285H89.6399C91.1599 13.7285 91.9916 14.4741 91.9916 15.5924C91.9916 16.7107 91.1599 17.4562 89.6399 17.4562H80.8634V13.7285Z" fill="white"/>
<path d="M111.157 1.11176C103.958 1.11176 98.7664 5.61364 98.7664 11.75C98.7664 17.8863 103.958 22.3882 111.157 22.3882C118.356 22.3882 123.519 17.8863 123.519 11.75C123.519 5.61364 118.356 1.11176 111.157 1.11176ZM111.157 5.98642C114.943 5.98642 117.782 8.22302 117.782 11.75C117.782 15.2769 114.943 17.5135 111.157 17.5135C107.371 17.5135 104.532 15.2769 104.532 11.75C104.532 8.22302 107.371 5.98642 111.157 5.98642Z" fill="white"/>
<path d="M131.62 15.2196H137.212L141.629 22.0441H148.083L143.092 14.6175C145.903 13.6138 147.624 11.3772 147.624 8.33772C147.624 3.92187 144.325 1.45587 139.306 1.45587H125.998V22.0441H131.62V15.2196ZM131.62 10.7751V6.15849H139.019C140.998 6.15849 142.088 7.01872 142.088 8.48112C142.088 9.85749 140.998 10.7751 139.019 10.7751H131.62Z" fill="white"/>
<path d="M150.24 1.45587V22.0441H170.259V17.2842H155.746V13.9293H168.624V9.28397H155.746V6.21583H170.259V1.45587H150.24Z" fill="white"/>
<path d="M178.59 15.4777H186.075C191.095 15.4777 194.393 13.069 194.393 8.48112C194.393 3.86452 191.095 1.45587 186.075 1.45587H172.968V22.0441H178.59V15.4777ZM178.59 10.8037V6.15849H185.76C187.768 6.15849 188.858 7.01872 188.858 8.48112C188.858 9.91482 187.768 10.8037 185.76 10.8037H178.59Z" fill="white"/>
<path d="M208.346 1.11176C201.147 1.11176 195.956 5.61364 195.956 11.75C195.956 17.8863 201.147 22.3882 208.346 22.3882C215.545 22.3882 220.707 17.8863 220.707 11.75C220.707 5.61364 215.545 1.11176 208.346 1.11176ZM208.346 5.98642C212.132 5.98642 214.971 8.22302 214.971 11.75C214.971 15.2769 212.132 17.5135 208.346 17.5135C204.56 17.5135 201.72 15.2769 201.72 11.75C201.72 8.22302 204.56 5.98642 208.346 5.98642Z" fill="white"/>
</g>
<defs>
<clipPath id="clip0_1_910">
<rect width="220" height="21.734" fill="white" transform="translate(0.998535 0.997986)"/>
</clipPath>
</defs>
</svg>
